<svg height="512" viewBox="0 0 512 512" width="512" xmlns="http://www.w3.org/2000/svg"><g id="_5.Carrot" data-name="5.Carrot"><g id="c"><path d="m325.9827 155.9912h-139.97a4.9986 4.9986 0 0 1 -2.5-.67l-42.09-24.3a40.5412 40.5412 0 0 1 40.5391-70.2207l33.5009 19.34v-38.6a40.54 40.54 0 0 1 81.08 0v38.5995l33.49-19.3388a40.5413 40.5413 0 0 1 40.5413 70.22l-.001.0005-42.09 24.3a4.9981 4.9981 0 0 1 -2.5003.6695zm-138.63-10h137.2901l40.93-23.63a30.5414 30.5414 0 0 0 -30.541-52.8994l-40.989 23.6694a5 5 0 0 1 -7.5-4.33v-47.2602a30.54 30.54 0 0 0 -61.08 0v47.26a5 5 0 0 1 -7.5 4.33l-41-23.67a30.5413 30.5413 0 0 0 -30.5381 52.9009z"/><path d="m256.0049 510.9971c-22.0977 0-40.679-12.84-48.492-33.51l-73.96-195.72a5 5 0 0 1 9.3545-3.5352l73.96 195.7207c7.5371 19.94 25.1592 27.044 39.1375 27.044s31.6006-7.1045 39.1382-27.045l66.478-175.9062c.02-.0586.0405-.1167.0622-.1748l20-52.88 12.219-32.3672a41.5289 41.5289 0 0 0 2.62-11.7778 41.9794 41.9794 0 0 0 -11.1554-31.5556 41.3093 41.3093 0 0 0 -30.6069-13.3h-197.52a41.8414 41.8414 0 0 0 -39.1323 56.6343l5.14 13.6089a5 5 0 1 1 -9.355 3.5332l-5.14-13.61a51.8412 51.8412 0 0 1 48.4873-70.1664h197.52a51.2066 51.2066 0 0 1 37.936 16.4961 52.0009 52.0009 0 0 1 13.8 39.0855 51.4747 51.4747 0 0 1 -3.24 14.59l-12.2178 32.3638-19.94 52.7207c-.0192.0571-.0395.1142-.061.1709l-66.54 176.07c-7.8131 20.6702-26.3944 33.5101-48.4923 33.5101z"/><path d="m130.2908 264.0015a5.0018 5.0018 0 0 1 -4.6778-3.2334l-3.78-10a5 5 0 1 1 9.354-3.5362l3.78 10a5.0033 5.0033 0 0 1 -4.6762 6.77z"/><path d="m192.2329 427.915a5.0018 5.0018 0 0 1 -4.6758-3.2334l-13.76-36.4043a5 5 0 0 1 6.0783-6.5673l39.0916 11.414a14.1707 14.1707 0 0 1 .0041 27.1973l-.0048.001-25.3313 7.3916a5.0135 5.0135 0 0 1 -1.4021.2011zm-5.5376-33.7959 8.58 22.6993 20.8853-6.0948a4.17 4.17 0 0 0 -.0005-8.0009z"/><path d="m351.5291 343.89a4.9987 4.9987 0 0 1 -1.4024-.2011l-29.6526-8.6568a14.17 14.17 0 0 1 -.0044-27.1968l44.4842-12.9794a5 5 0 0 1 6.0776 6.5673l-14.8264 39.2334a5.0021 5.0021 0 0 1 -4.676 3.2334zm6.6054-36.6274-34.8589 10.1709a4.17 4.17 0 0 0 .0052 8l25.2058 7.3584z"/><path d="m386.356 251.7627a4.9976 4.9976 0 0 1 -1.4026-.2012l-40.314-11.77a14.17 14.17 0 0 1 -.0041-27.1963l55.4714-16.1924a5 5 0 0 1 6.3884 5.1568 51.4828 51.4828 0 0 1 -3.2414 14.6108l-12.2215 32.3584a5.0021 5.0021 0 0 1 -4.6762 3.2339zm8.9511-43.542-47.8652 13.9722a4.17 4.17 0 0 0 .0041 8l35.8667 10.4717 10.5894-28.0372a42.3091 42.3091 0 0 0 1.405-4.4067z"/></g></g></svg>