<svg id="regular" enable-background="new 0 0 24 24" height="512" viewBox="0 0 24 24" width="512" xmlns="http://www.w3.org/2000/svg"><path d="m12 21.735c-1.379 0-2.5-1.278-2.5-2.851 0-1.571 1.121-2.85 2.5-2.85s2.5 1.278 2.5 2.85c0 1.573-1.121 2.851-2.5 2.851zm0-4.2c-.542 0-1 .618-1 1.35s.458 1.351 1 1.351 1-.618 1-1.351c0-.732-.458-1.35-1-1.35z"/><path d="m10.25 13.502h-5.5c-.414 0-.75-.335-.75-.75 0-.414.336-.75.75-.75h5.5c.414 0 .75.336.75.75 0 .415-.336.75-.75.75z"/><path d="m5.75 21.73c-.414 0-.75-.335-.75-.75v-8.23c0-.414.336-.75.75-.75s.75.336.75.75v8.23c0 .415-.336.75-.75.75z"/><path d="m8.25 23.25c-.414 0-.75-.336-.75-.75v-9.75c0-.414.336-.75.75-.75s.75.336.75.75v9.75c0 .414-.336.75-.75.75z"/><path d="m19.25 13.502h-5.5c-.414 0-.75-.335-.75-.75 0-.414.336-.75.75-.75h5.5c.414 0 .75.336.75.75 0 .415-.336.75-.75.75z"/><path d="m18.25 21.73c-.414 0-.75-.336-.75-.75v-8.23c0-.414.336-.75.75-.75s.75.336.75.75v8.23c0 .415-.336.75-.75.75z"/><path d="m15.75 23.25c-.414 0-.75-.336-.75-.75v-9.75c0-.414.336-.75.75-.75s.75.336.75.75v9.75c0 .414-.336.75-.75.75z"/><path d="m2.989 10.383c-.146 0-.293-.042-.423-.131-2.12-1.451-2.524-5.587-2.563-6.055-.035-.413.271-.775.684-.81.405-.04.775.271.811.684.092 1.072.614 4.051 1.917 4.942.342.234.429.701.195 1.042-.146.214-.381.328-.621.328z"/><path d="m21.011 10.383c-.239 0-.475-.114-.62-.327-.233-.342-.146-.809.195-1.042 1.303-.891 1.825-3.87 1.917-4.942.035-.413.405-.722.811-.684.412.035.719.397.684.81-.039.467-.443 4.604-2.563 6.055-.131.087-.279.13-.424.13z"/><path d="m12 6.43c-1.726 0-3.573-.132-5.49-.394-.012 0-.023-.001-.032-.003-.324-.04-.637-.081-.94-.131-.24-.04-.445-.194-.552-.413s-.099-.475.018-.689l1.868-3.395c.475-.865 1.383-1.405 2.369-1.405h5.518c.986 0 1.895.54 2.37 1.408l1.867 3.392c.117.213.124.47.018.689s-.312.373-.552.413c-.303.05-.616.091-.939.131-.01.001-.021.002-.032.003-1.918.262-3.765.394-5.491.394zm-5.156-1.861c1.813.24 3.542.361 5.156.361 1.619 0 3.353-.122 5.156-.362l-1.343-2.438c-.212-.39-.616-.63-1.054-.63h-5.518c-.438 0-.842.24-1.054.627z"/><path d="m12 10.754c-3.085 0-5.872-.855-8.285-2.542-2.426-1.698-3.565-3.618-3.612-3.698-.155-.265-.133-.597.055-.839.188-.243.505-.344.799-.261.02.005 2.001.57 4.819 1.007.291.049.585.086.887.124 1.88.256 3.669.385 5.337.385s3.457-.129 5.318-.384c.033-.004.067-.007.102-.007.219-.032.513-.069.796-.117 2.834-.439 4.808-1.003 4.827-1.008.292-.085.61.018.799.26.188.242.21.575.056.839-.048.081-1.187 2-3.611 3.698-2.415 1.688-5.202 2.543-8.287 2.543zm-9.301-5.375c.485.503 1.109 1.068 1.876 1.604 2.155 1.507 4.654 2.271 7.425 2.271s5.27-.764 7.426-2.271c.767-.537 1.39-1.101 1.875-1.604-.784.168-1.751.355-2.847.525-.295.049-.608.089-.932.13-.01.001-.021.002-.032.003-1.917.261-3.764.393-5.49.393s-3.573-.132-5.49-.393c-.012-.001-.023-.002-.032-.004-.324-.04-.637-.081-.94-.131-1.092-.169-2.057-.356-2.839-.523z"/><path d="m12 24c-5.79 0-10.5-4.71-10.5-10.5 0-2.292.73-4.471 2.111-6.302.249-.331.72-.397 1.05-.147.331.25.397.72.147 1.05-1.183 1.569-1.808 3.436-1.808 5.399 0 4.963 4.037 9 9 9s9-4.037 9-9c0-1.963-.625-3.83-1.809-5.398-.25-.331-.184-.801.147-1.05.329-.25.8-.184 1.05.147 1.382 1.83 2.112 4.009 2.112 6.301 0 5.79-4.71 10.5-10.5 10.5z"/></svg>