<?xml version="1.0" encoding="iso-8859-1"?>
<!-- Generator: Adobe Illustrator 19.0.0, SVG Export Plug-In . SVG Version: 6.00 Build 0)  -->
<svg version="1.1" id="Capa_1" xmlns="http://www.w3.org/2000/svg" xmlns:xlink="http://www.w3.org/1999/xlink" x="0px" y="0px"
	 viewBox="0 0 472.615 472.615" style="enable-background:new 0 0 472.615 472.615;" xml:space="preserve">
<g>
	<g>
		<rect x="9.846" y="98.46" width="452.92" height="19.692"/>
	</g>
</g>
<g>
	<g>
		<path d="M0,0v472.615h472.615V0H0z M19.692,452.923V19.692h433.231v433.231H19.692z"/>
	</g>
</g>
<g>
	<g>
		<path d="M49.231,147.692v275.692h374.154V147.692H49.231z M403.692,403.692H68.923V167.385h334.769V403.692z"/>
	</g>
</g>
<g>
	<g>
		<rect x="167.38" y="203.82" width="19.692" height="155.57"/>
	</g>
</g>
<g>
	<g>
		<polygon points="285.538,243.2 285.538,285.539 230.4,285.539 255.015,209.723 237.292,203.816 202.831,305.231 285.538,305.231 
			285.538,364.308 305.231,364.308 305.231,243.2 		"/>
	</g>
</g>
<g>
	<g>
		<rect x="128" y="49.23" width="196.92" height="19.692"/>
	</g>
</g>
<g>
	<g>
		<rect x="324.92" y="29.539" width="19.692" height="60.06"/>
	</g>
</g>
<g>
	<g>
		<rect x="118.15" y="29.539" width="19.692" height="60.06"/>
	</g>
</g>
<g>
</g>
<g>
</g>
<g>
</g>
<g>
</g>
<g>
</g>
<g>
</g>
<g>
</g>
<g>
</g>
<g>
</g>
<g>
</g>
<g>
</g>
<g>
</g>
<g>
</g>
<g>
</g>
<g>
</g>
</svg>
