<svg id="Capa_1" enable-background="new 0 0 512 512" height="512" viewBox="0 0 512 512" width="512" xmlns="http://www.w3.org/2000/svg"><g><path d="m512 0h-365.014v48.883h-41.156v-48.883h-105.83v270h105.83v-56.117h41.156v268.117h-146.986v30h512zm-436.17 240h-45.83v-210h45.83zm30-56.117v-105h41.156v105zm280.515 298.059h-42.345v-102.4h42.345zm-72.345 0h-42.345v-102.4h42.345zm168 0h-65.655v-132.4h-174.69v132.399h-64.669v-451.941h305.014z"/><path d="m211.493 73.883h30v57h-30z"/><path d="m281.493 73.883h30v57h-30z"/><path d="m351.493 73.883h30v57h-30z"/><path d="m421.493 73.883h30v57h-30z"/><path d="m211.493 162.128h30v57h-30z"/><path d="m281.493 162.128h30v57h-30z"/><path d="m351.493 162.128h30v57h-30z"/><path d="m421.493 162.128h30v57h-30z"/><path d="m211.493 256.912h30v57h-30z"/><path d="m281.493 256.912h30v57h-30z"/><path d="m351.493 256.912h30v57h-30z"/><path d="m421.493 256.912h30v57h-30z"/></g></svg>